<svg xmlns="http://www.w3.org/2000/svg" xmlns:xlink="http://www.w3.org/1999/xlink" width="264px" height="264px" viewBox="194 75 264 264" version="1.1"><desc>nownabe logo</desc><defs><linearGradient x1="50%" y1="0%" x2="50%" y2="100%" id="linearGradient-1"><stop stop-color="#57A2E7" offset="0%"/><stop stop-color="#905ADB" offset="100%"/></linearGradient><rect id="path-2" x="196" y="77" width="256" height="256" rx="16"/><filter x="-50%" y="-50%" width="200%" height="200%" filterUnits="objectBoundingBox" id="filter-3"><feOffset dx="2" dy="2" in="SourceAlpha" result="shadowOffsetOuter1"/><feMorphology radius="10" operator="erode" in="SourceAlpha" result="shadowInner"/><feOffset dx="2" dy="2" in="shadowInner" result="shadowInner"/><feComposite in="shadowOffsetOuter1" in2="shadowInner" operator="out" result="shadowOffsetOuter1"/><feGaussianBlur stdDeviation="2" in="shadowOffsetOuter1" result="shadowBlurOuter1"/><feColorMatrix values="0 0 0 0 0   0 0 0 0 0   0 0 0 0 0  0 0 0 0.5 0" type="matrix" in="shadowBlurOuter1"/></filter><mask id="mask-4" maskContentUnits="userSpaceOnUse" maskUnits="objectBoundingBox" x="0" y="0" width="256" height="256" fill="white"><use xlink:href="#path-2"/></mask><linearGradient x1="50%" y1="-12.5864535%" x2="50%" y2="113.479878%" id="linearGradient-5"><stop stop-color="#58A2E6" offset="0%"/><stop stop-color="#8F5CDB" offset="100%"/></linearGradient><path d="M370.625 206.625C370.625 206.625 360.95 212.7 335.975 207.3 307.175 200.55 307.175 183.675 307.175 183.675L365.45 183.675C368.375 183.675 368.375 184.35 368.375 187.5 368.375 199.875 373.55 203.25 370.625 206.625L370.625 206.625ZM432.5 174.225C436.325 193.125 419.675 205.05 414.5 205.05L333.05 141.15C302.225 197.4 243.275 190.875 214.925 183.9 264.875 165.9 296.825 122.925 307.625 100.425 322.925 98.4 335.975 107.4 337.1 122.7L432.5 174.225ZM349.925 262.875C306.275 258.15 272.525 234.975 264.65 218.55L387.5 218.55C387.5 249.825 375.575 308.775 325.175 308.775 305.825 308.775 296.6 294.15 296.6 294.15 316.85 292.8 336.65 284.925 346.775 269.175 347.9 267.15 348.8 264.9 349.925 262.875L349.925 262.875Z" id="path-6"/><filter x="-50%" y="-50%" width="200%" height="200%" filterUnits="objectBoundingBox" id="filter-7"><feOffset dx="2" dy="2" in="SourceAlpha" result="shadowOffsetOuter1"/><feGaussianBlur stdDeviation="2" in="shadowOffsetOuter1" result="shadowBlurOuter1"/><feColorMatrix values="0 0 0 0 0   0 0 0 0 0   0 0 0 0 0  0 0 0 0.5 0" type="matrix" in="shadowBlurOuter1"/></filter></defs><g id="Rectangle-1" stroke="none" fill="none"><use fill="black" fill-opacity="1" filter="url(#filter-3)" xlink:href="#path-2"/><use stroke="url(#linearGradient-1)" mask="url(#mask-4)" stroke-width="20" xlink:href="#path-2"/></g><g id="今" stroke="none" fill="none"><use fill="black" fill-opacity="1" filter="url(#filter-7)" xlink:href="#path-6"/><use fill="url(#linearGradient-5)" fill-rule="evenodd" xlink:href="#path-6"/></g></svg>
